<svg width="556" height="440" viewBox="0 0 556 440" fill="none" xmlns="http://www.w3.org/2000/svg">
<mask id="mask0" mask-type="alpha" maskUnits="userSpaceOnUse" x="0" y="0" width="556" height="440">
<rect width="556" height="440" fill="#C4C4C4"/>
</mask>
<g mask="url(#mask0)">
<path d="M160.189 413.537L87.6136 388.003L73.252 334.145C71.0643 329.03 72.2899 323.313 75.8924 319.437L102.546 314.155C100.358 309.04 101.584 303.323 105.186 299.447L131.117 294.317L131.839 294.165L107.561 237.402C105.373 232.287 106.599 226.57 110.201 222.694L170.161 298.964L171.923 299.404C177.823 296.881 188.343 307.303 188.343 307.303L188.396 307.392L160.189 413.537Z" fill="#9BA8B0"/>
<path d="M110.036 331.678C107.622 336.807 107.244 342.841 109.635 348.429C111.667 353.179 115.337 356.683 119.686 358.747C119.17 363.572 116.162 368.022 111.333 370.087C104.271 373.107 96.1216 369.907 93.1428 362.943L76.9538 325.098C76.1633 323.25 75.8472 321.326 75.8928 319.434C76.0197 314.194 79.1633 309.231 84.3511 307.012C91.4131 303.992 99.5622 307.193 102.541 314.156L110.036 331.678Z" fill="#CCD6DD"/>
<path d="M23.3824 288.308C20.4034 281.345 23.7176 273.242 30.7801 270.221C37.8426 267.201 45.9923 270.402 48.9712 277.366L86.7481 365.674C89.012 370.967 93.6428 375.105 99.132 376.951C109.194 379.811 120.134 375.753 124.715 365.996C125.511 364.283 126.128 362.504 126.438 360.648L126.411 360.637C128.007 360.813 130.528 361.876 136.925 359.14L153.155 352.2C145.266 365.759 144.493 385.676 152.615 404.663C153.36 406.404 155.397 407.204 157.163 406.449C158.929 405.694 159.757 403.668 159.012 401.927C148.599 377.585 154.115 351.79 171.31 344.436C176.085 342.984 174.03 335.811 169.412 337.787L134.227 352.833C127.164 355.853 119.015 352.652 116.036 345.688C113.057 338.725 116.371 330.622 123.434 327.602L174.611 305.716C180.804 303.068 185.694 305.424 188.385 307.4C189.777 308.424 190.619 309.347 190.667 309.409L207.295 329.048C208.858 330.88 215.408 339.54 215.836 341.744C228.812 372.078 212.263 416.464 175.703 432.098C133.884 449.981 84.7698 431.81 66.5559 389.233C66.626 389.255 23.3824 288.308 23.3824 288.308Z" fill="#CCD6DD"/>
<path d="M139.938 313.09L120.746 321.297C118.495 322.26 116.559 323.625 114.846 325.193L106.255 305.11C105.464 303.262 105.148 301.337 105.193 299.445C105.32 294.205 108.464 289.242 113.652 287.023C120.714 284.003 128.864 287.204 131.843 294.167L139.938 313.09ZM146.335 310.355L111.257 228.355C110.466 226.507 110.15 224.583 110.196 222.691C110.323 217.45 113.467 212.487 118.655 210.269C125.717 207.249 133.866 210.449 136.845 217.413L171.923 299.412L146.335 310.355Z" fill="#CCD6DD"/>
<path d="M515 170.799C515 265.18 381.992 361.793 344 361.793C305.998 361.793 173 265.18 173 170.799C173 76.4174 249.558 -0.0909119 344 -0.0909119C438.442 -0.0909119 515 76.4174 515 170.799Z" fill="#CCD6DD"/>
<path d="M298.765 149.136C330.189 180.539 342.923 218.728 327.212 234.43C311.5 250.132 273.286 237.416 241.863 206.002C210.429 174.599 197.694 136.41 213.416 120.708C229.138 105.006 267.342 117.732 298.765 149.136ZM389.234 149.136C357.811 180.539 345.076 218.728 360.788 234.43C376.5 250.132 414.713 237.416 446.137 206.002C477.571 174.589 490.305 136.41 474.583 120.708C458.872 105.006 420.658 117.722 389.234 149.136ZM344 311.532C320.392 311.532 308.039 299.871 306.712 298.534C302.779 294.603 302.779 288.25 306.712 284.32C310.604 280.43 316.901 280.389 320.834 284.219C321.347 284.692 328.942 291.427 344 291.427C359.279 291.427 366.863 284.501 367.185 284.199C371.189 280.44 377.516 280.55 381.348 284.491C385.16 288.441 385.171 294.654 381.288 298.524C379.96 299.871 367.608 311.532 344 311.532Z" fill="#292F33"/>
</g>
</svg>
