<svg width="107" height="199" viewBox="0 0 107 199" fill="none" xmlns="http://www.w3.org/2000/svg">
<path d="M5.6345 199C8.15752 199 10.4496 197.325 11.0916 194.81C11.2944 194.058 16.3066 175.816 35.156 171.195C61.6421 164.694 61.9462 128.67 61.9462 127.139C61.9462 124.087 59.4288 121.622 56.3257 121.616C53.2058 121.804 50.694 124.076 50.6827 127.128C50.6827 127.421 50.3786 156.06 32.4247 160.471C6.9129 166.729 0.425152 191.095 0.171726 192.134C-0.588558 195.092 1.24738 198.093 4.26599 198.834C4.72216 198.945 5.18396 199 5.6345 199Z" fill="#FCAB40"/>
<path d="M61.9461 138.195C68.141 138.195 70.9456 133.745 68.1692 128.305L61.3492 114.917C58.5783 109.478 54.0448 109.478 51.274 114.917L44.454 128.305C41.6831 133.745 44.4878 138.195 50.6827 138.195H61.9461Z" fill="#BB1A34"/>
<path d="M5.62878 49.7501C5.62878 82.9168 45.0509 116.084 56.3144 116.084C67.5779 116.084 107 82.9168 107 49.7501C107 17.6944 81.1954 0 56.3144 0C31.4334 0 5.62878 17.6944 5.62878 49.7501Z" fill="#BB1A34"/>
<path d="M50.6827 121.611H61.9461C65.0548 121.611 67.5779 119.14 67.5779 116.084C67.5779 113.027 65.0548 110.556 61.9461 110.556H50.6827C47.5683 110.556 45.0509 113.027 45.0509 116.084C45.0509 119.14 47.5683 121.611 50.6827 121.611Z" fill="#FCAB40"/>
</svg>
