<svg width="214" height="70" viewBox="0 0 214 70" fill="none" xmlns="http://www.w3.org/2000/svg">
<rect width="214" height="70" rx="3" fill="#222222"/>
<path d="M27.3427 29.7041C23.961 35.5723 26.1108 44.4776 29.8504 49.8772C31.717 52.5768 33.6068 55 36.1953 55C36.2441 55 36.293 54.999 36.3431 54.9971C37.5592 54.9486 38.438 54.5741 39.2877 54.2123C40.2417 53.8057 41.2283 53.3854 42.7759 53.3854C44.2481 53.3854 45.1877 53.7921 46.0963 54.1853C46.9917 54.5727 47.9141 54.9735 49.277 54.9479C52.1927 54.8936 53.9828 52.2788 55.5622 49.972C57.2104 47.5635 58.0371 45.225 58.3161 44.3314L58.3273 44.2958C58.3805 44.137 58.3054 43.9636 58.1532 43.8937C58.149 43.8918 58.1335 43.8853 58.1292 43.8835C57.6157 43.6735 53.1119 41.6755 53.0645 36.2297C53.0206 31.8053 56.4433 29.4624 57.1297 29.0377L57.1617 29.0178C57.2361 28.9699 57.2879 28.894 57.3054 28.8072C57.323 28.7205 57.3047 28.6303 57.2548 28.5573C54.8923 25.1 51.2713 24.579 49.8135 24.5163C49.602 24.4952 49.3836 24.4846 49.1643 24.4846C47.4521 24.4846 45.8118 25.1312 44.494 25.6509C43.5844 26.0095 42.7987 26.3193 42.2568 26.3193C41.6479 26.3193 40.8577 26.0057 39.9427 25.6427C38.7191 25.1571 37.3322 24.6068 35.864 24.6068C35.829 24.6068 35.7945 24.6072 35.7605 24.6078C32.3467 24.6581 29.121 26.6111 27.3427 29.7041Z" fill="white"/>
<path d="M49.8165 15.0003C47.7492 15.0844 45.2694 16.357 43.7871 18.0931C42.5275 19.5524 41.2969 21.9854 41.6211 24.4379C41.6414 24.5913 41.7663 24.7098 41.9207 24.7217C42.0602 24.7326 42.2026 24.7381 42.3445 24.7382C44.3659 24.7382 46.5465 23.6199 48.0357 21.8193C49.603 19.9179 50.3955 17.4778 50.1558 15.2921C50.1369 15.1208 49.9862 14.9936 49.8165 15.0003Z" fill="white"/>
<path d="M77.5784 16.6H81.1184C82.0064 16.6 82.7944 16.776 83.4824 17.128C84.1704 17.48 84.7024 17.976 85.0784 18.616C85.4624 19.248 85.6544 19.976 85.6544 20.8C85.6544 21.624 85.4624 22.356 85.0784 22.996C84.7024 23.628 84.1704 24.12 83.4824 24.472C82.7944 24.824 82.0064 25 81.1184 25H77.5784V16.6ZM81.0464 23.956C81.7264 23.956 82.3224 23.824 82.8344 23.56C83.3544 23.296 83.7544 22.928 84.0344 22.456C84.3144 21.976 84.4544 21.424 84.4544 20.8C84.4544 20.176 84.3144 19.628 84.0344 19.156C83.7544 18.676 83.3544 18.304 82.8344 18.04C82.3224 17.776 81.7264 17.644 81.0464 17.644H78.7784V23.956H81.0464ZM90.0484 25.072C89.4164 25.072 88.8484 24.932 88.3444 24.652C87.8404 24.372 87.4444 23.988 87.1564 23.5C86.8764 23.004 86.7364 22.444 86.7364 21.82C86.7364 21.196 86.8764 20.64 87.1564 20.152C87.4444 19.656 87.8404 19.272 88.3444 19C88.8484 18.72 89.4164 18.58 90.0484 18.58C90.6804 18.58 91.2444 18.72 91.7404 19C92.2444 19.272 92.6364 19.656 92.9164 20.152C93.2044 20.64 93.3484 21.196 93.3484 21.82C93.3484 22.444 93.2044 23.004 92.9164 23.5C92.6364 23.988 92.2444 24.372 91.7404 24.652C91.2444 24.932 90.6804 25.072 90.0484 25.072ZM90.0484 24.064C90.4564 24.064 90.8204 23.972 91.1404 23.788C91.4684 23.596 91.7244 23.332 91.9084 22.996C92.0924 22.652 92.1844 22.26 92.1844 21.82C92.1844 21.38 92.0924 20.992 91.9084 20.656C91.7244 20.312 91.4684 20.048 91.1404 19.864C90.8204 19.68 90.4564 19.588 90.0484 19.588C89.6404 19.588 89.2724 19.68 88.9444 19.864C88.6244 20.048 88.3684 20.312 88.1764 20.656C87.9924 20.992 87.9004 21.38 87.9004 21.82C87.9004 22.26 87.9924 22.652 88.1764 22.996C88.3684 23.332 88.6244 23.596 88.9444 23.788C89.2724 23.972 89.6404 24.064 90.0484 24.064ZM104.39 18.64L102.014 25H100.91L99.0738 20.176L97.2138 25H96.1098L93.7458 18.64H94.8378L96.6858 23.704L98.6058 18.64H99.5778L101.462 23.728L103.358 18.64H104.39ZM108.955 18.58C109.763 18.58 110.403 18.816 110.875 19.288C111.355 19.752 111.595 20.436 111.595 21.34V25H110.443V21.472C110.443 20.856 110.295 20.392 109.999 20.08C109.703 19.768 109.279 19.612 108.727 19.612C108.103 19.612 107.611 19.796 107.251 20.164C106.891 20.524 106.711 21.044 106.711 21.724V25H105.559V18.64H106.663V19.6C106.895 19.272 107.207 19.02 107.599 18.844C107.999 18.668 108.451 18.58 108.955 18.58ZM113.727 16.096H114.879V25H113.727V16.096ZM119.802 25.072C119.17 25.072 118.602 24.932 118.098 24.652C117.594 24.372 117.198 23.988 116.91 23.5C116.63 23.004 116.49 22.444 116.49 21.82C116.49 21.196 116.63 20.64 116.91 20.152C117.198 19.656 117.594 19.272 118.098 19C118.602 18.72 119.17 18.58 119.802 18.58C120.434 18.58 120.998 18.72 121.494 19C121.998 19.272 122.39 19.656 122.67 20.152C122.958 20.64 123.102 21.196 123.102 21.82C123.102 22.444 122.958 23.004 122.67 23.5C122.39 23.988 121.998 24.372 121.494 24.652C120.998 24.932 120.434 25.072 119.802 25.072ZM119.802 24.064C120.21 24.064 120.574 23.972 120.894 23.788C121.222 23.596 121.478 23.332 121.662 22.996C121.846 22.652 121.938 22.26 121.938 21.82C121.938 21.38 121.846 20.992 121.662 20.656C121.478 20.312 121.222 20.048 120.894 19.864C120.574 19.68 120.21 19.588 119.802 19.588C119.394 19.588 119.026 19.68 118.698 19.864C118.378 20.048 118.122 20.312 117.93 20.656C117.746 20.992 117.654 21.38 117.654 21.82C117.654 22.26 117.746 22.652 117.93 22.996C118.122 23.332 118.378 23.596 118.698 23.788C119.026 23.972 119.394 24.064 119.802 24.064ZM126.953 18.58C127.833 18.58 128.505 18.796 128.969 19.228C129.441 19.66 129.677 20.304 129.677 21.16V25H128.585V24.16C128.393 24.456 128.117 24.684 127.757 24.844C127.405 24.996 126.985 25.072 126.497 25.072C125.785 25.072 125.213 24.9 124.781 24.556C124.357 24.212 124.145 23.76 124.145 23.2C124.145 22.64 124.349 22.192 124.757 21.856C125.165 21.512 125.813 21.34 126.701 21.34H128.525V21.112C128.525 20.616 128.381 20.236 128.093 19.972C127.805 19.708 127.381 19.576 126.821 19.576C126.445 19.576 126.077 19.64 125.717 19.768C125.357 19.888 125.053 20.052 124.805 20.26L124.325 19.396C124.653 19.132 125.045 18.932 125.501 18.796C125.957 18.652 126.441 18.58 126.953 18.58ZM126.689 24.184C127.129 24.184 127.509 24.088 127.829 23.896C128.149 23.696 128.381 23.416 128.525 23.056V22.168H126.749C125.773 22.168 125.285 22.496 125.285 23.152C125.285 23.472 125.409 23.724 125.657 23.908C125.905 24.092 126.249 24.184 126.689 24.184ZM137.844 16.096V25H136.74V23.992C136.484 24.344 136.16 24.612 135.768 24.796C135.376 24.98 134.944 25.072 134.472 25.072C133.856 25.072 133.304 24.936 132.816 24.664C132.328 24.392 131.944 24.012 131.664 23.524C131.392 23.028 131.256 22.46 131.256 21.82C131.256 21.18 131.392 20.616 131.664 20.128C131.944 19.64 132.328 19.26 132.816 18.988C133.304 18.716 133.856 18.58 134.472 18.58C134.928 18.58 135.348 18.668 135.732 18.844C136.116 19.012 136.436 19.264 136.692 19.6V16.096H137.844ZM134.568 24.064C134.968 24.064 135.332 23.972 135.66 23.788C135.988 23.596 136.244 23.332 136.428 22.996C136.612 22.652 136.704 22.26 136.704 21.82C136.704 21.38 136.612 20.992 136.428 20.656C136.244 20.312 135.988 20.048 135.66 19.864C135.332 19.68 134.968 19.588 134.568 19.588C134.16 19.588 133.792 19.68 133.464 19.864C133.144 20.048 132.888 20.312 132.696 20.656C132.512 20.992 132.42 21.38 132.42 21.82C132.42 22.26 132.512 22.652 132.696 22.996C132.888 23.332 133.144 23.596 133.464 23.788C133.792 23.972 134.16 24.064 134.568 24.064ZM145.97 25.072C145.338 25.072 144.77 24.932 144.266 24.652C143.762 24.372 143.366 23.988 143.078 23.5C142.798 23.004 142.658 22.444 142.658 21.82C142.658 21.196 142.798 20.64 143.078 20.152C143.366 19.656 143.762 19.272 144.266 19C144.77 18.72 145.338 18.58 145.97 18.58C146.602 18.58 147.166 18.72 147.662 19C148.166 19.272 148.558 19.656 148.838 20.152C149.126 20.64 149.27 21.196 149.27 21.82C149.27 22.444 149.126 23.004 148.838 23.5C148.558 23.988 148.166 24.372 147.662 24.652C147.166 24.932 146.602 25.072 145.97 25.072ZM145.97 24.064C146.378 24.064 146.742 23.972 147.062 23.788C147.39 23.596 147.646 23.332 147.83 22.996C148.014 22.652 148.106 22.26 148.106 21.82C148.106 21.38 148.014 20.992 147.83 20.656C147.646 20.312 147.39 20.048 147.062 19.864C146.742 19.68 146.378 19.588 145.97 19.588C145.562 19.588 145.194 19.68 144.866 19.864C144.546 20.048 144.29 20.312 144.098 20.656C143.914 20.992 143.822 21.38 143.822 21.82C143.822 22.26 143.914 22.652 144.098 22.996C144.29 23.332 144.546 23.596 144.866 23.788C145.194 23.972 145.562 24.064 145.97 24.064ZM154.259 18.58C155.067 18.58 155.707 18.816 156.179 19.288C156.659 19.752 156.899 20.436 156.899 21.34V25H155.747V21.472C155.747 20.856 155.599 20.392 155.303 20.08C155.007 19.768 154.583 19.612 154.031 19.612C153.407 19.612 152.915 19.796 152.555 20.164C152.195 20.524 152.015 21.044 152.015 21.724V25H150.863V18.64H151.967V19.6C152.199 19.272 152.511 19.02 152.903 18.844C153.303 18.668 153.755 18.58 154.259 18.58ZM165.83 24.628C165.662 24.772 165.454 24.884 165.206 24.964C164.958 25.036 164.702 25.072 164.438 25.072C163.798 25.072 163.302 24.9 162.95 24.556C162.598 24.212 162.422 23.72 162.422 23.08V19.588H161.342V18.64H162.422V17.248H163.574V18.64H165.398V19.588H163.574V23.032C163.574 23.376 163.658 23.64 163.826 23.824C164.002 24.008 164.25 24.1 164.57 24.1C164.922 24.1 165.222 24 165.47 23.8L165.83 24.628ZM170.619 18.58C171.427 18.58 172.067 18.816 172.539 19.288C173.019 19.752 173.259 20.436 173.259 21.34V25H172.107V21.472C172.107 20.856 171.959 20.392 171.663 20.08C171.367 19.768 170.943 19.612 170.391 19.612C169.767 19.612 169.275 19.796 168.915 20.164C168.555 20.524 168.375 21.044 168.375 21.724V25H167.223V16.096H168.375V19.54C168.615 19.236 168.927 19 169.311 18.832C169.703 18.664 170.139 18.58 170.619 18.58ZM181.174 21.856C181.174 21.944 181.166 22.06 181.15 22.204H175.99C176.062 22.764 176.306 23.216 176.722 23.56C177.146 23.896 177.67 24.064 178.294 24.064C179.054 24.064 179.666 23.808 180.13 23.296L180.766 24.04C180.478 24.376 180.118 24.632 179.686 24.808C179.262 24.984 178.786 25.072 178.258 25.072C177.586 25.072 176.99 24.936 176.47 24.664C175.95 24.384 175.546 23.996 175.258 23.5C174.978 23.004 174.838 22.444 174.838 21.82C174.838 21.204 174.974 20.648 175.246 20.152C175.526 19.656 175.906 19.272 176.386 19C176.874 18.72 177.422 18.58 178.03 18.58C178.638 18.58 179.178 18.72 179.65 19C180.13 19.272 180.502 19.656 180.766 20.152C181.038 20.648 181.174 21.216 181.174 21.856ZM178.03 19.552C177.478 19.552 177.014 19.72 176.638 20.056C176.27 20.392 176.054 20.832 175.99 21.376H180.07C180.006 20.84 179.786 20.404 179.41 20.068C179.042 19.724 178.582 19.552 178.03 19.552Z" fill="white"/>
<path d="M89.341 47.7H82.191L80.827 51H77.175L84.039 35.6H87.559L94.445 51H90.705L89.341 47.7ZM88.219 44.994L85.777 39.098L83.335 44.994H88.219ZM102.797 38.988C103.897 38.988 104.894 39.2447 105.789 39.758C106.698 40.2567 107.409 40.968 107.923 41.892C108.436 42.8013 108.693 43.8647 108.693 45.082C108.693 46.2993 108.436 47.37 107.923 48.294C107.409 49.2033 106.698 49.9147 105.789 50.428C104.894 50.9267 103.897 51.176 102.797 51.176C101.286 51.176 100.098 50.6993 99.2328 49.746V55.268H95.8008V39.164H99.0788V40.528C99.9295 39.5013 101.169 38.988 102.797 38.988ZM102.203 48.36C103.083 48.36 103.801 48.0667 104.359 47.48C104.931 46.8787 105.217 46.0793 105.217 45.082C105.217 44.0847 104.931 43.2927 104.359 42.706C103.801 42.1047 103.083 41.804 102.203 41.804C101.323 41.804 100.597 42.1047 100.025 42.706C99.4675 43.2927 99.1888 44.0847 99.1888 45.082C99.1888 46.0793 99.4675 46.8787 100.025 47.48C100.597 48.0667 101.323 48.36 102.203 48.36ZM117.986 38.988C119.086 38.988 120.084 39.2447 120.978 39.758C121.888 40.2567 122.599 40.968 123.112 41.892C123.626 42.8013 123.882 43.8647 123.882 45.082C123.882 46.2993 123.626 47.37 123.112 48.294C122.599 49.2033 121.888 49.9147 120.978 50.428C120.084 50.9267 119.086 51.176 117.986 51.176C116.476 51.176 115.288 50.6993 114.422 49.746V55.268H110.99V39.164H114.268V40.528C115.119 39.5013 116.358 38.988 117.986 38.988ZM117.392 48.36C118.272 48.36 118.991 48.0667 119.548 47.48C120.12 46.8787 120.406 46.0793 120.406 45.082C120.406 44.0847 120.12 43.2927 119.548 42.706C118.991 42.1047 118.272 41.804 117.392 41.804C116.512 41.804 115.786 42.1047 115.214 42.706C114.657 43.2927 114.378 44.0847 114.378 45.082C114.378 46.0793 114.657 46.8787 115.214 47.48C115.786 48.0667 116.512 48.36 117.392 48.36ZM137.712 51.264C136.495 51.264 135.314 51.1027 134.17 50.78C133.041 50.4427 132.132 50.01 131.442 49.482L132.652 46.798C133.312 47.282 134.097 47.6707 135.006 47.964C135.916 48.2573 136.825 48.404 137.734 48.404C138.746 48.404 139.494 48.2573 139.978 47.964C140.462 47.656 140.704 47.2527 140.704 46.754C140.704 46.3873 140.558 46.0867 140.264 45.852C139.986 45.6027 139.619 45.4047 139.164 45.258C138.724 45.1113 138.123 44.95 137.36 44.774C136.187 44.4953 135.226 44.2167 134.478 43.938C133.73 43.6593 133.085 43.212 132.542 42.596C132.014 41.98 131.75 41.1587 131.75 40.132C131.75 39.2373 131.992 38.4307 132.476 37.712C132.96 36.9787 133.686 36.3993 134.654 35.974C135.637 35.5487 136.832 35.336 138.24 35.336C139.223 35.336 140.184 35.4533 141.122 35.688C142.061 35.9227 142.882 36.26 143.586 36.7L142.486 39.406C141.064 38.5993 139.641 38.196 138.218 38.196C137.221 38.196 136.48 38.3573 135.996 38.68C135.527 39.0027 135.292 39.428 135.292 39.956C135.292 40.484 135.564 40.88 136.106 41.144C136.664 41.3933 137.507 41.6427 138.636 41.892C139.81 42.1707 140.77 42.4493 141.518 42.728C142.266 43.0067 142.904 43.4467 143.432 44.048C143.975 44.6493 144.246 45.4633 144.246 46.49C144.246 47.37 143.997 48.1767 143.498 48.91C143.014 49.6287 142.281 50.2007 141.298 50.626C140.316 51.0513 139.12 51.264 137.712 51.264ZM154.073 50.428C153.736 50.6773 153.318 50.868 152.819 51C152.335 51.1173 151.822 51.176 151.279 51.176C149.871 51.176 148.779 50.8167 148.001 50.098C147.239 49.3793 146.857 48.3233 146.857 46.93V42.068H145.031V39.428H146.857V36.546H150.289V39.428H153.237V42.068H150.289V46.886C150.289 47.3847 150.414 47.7733 150.663 48.052C150.927 48.316 151.294 48.448 151.763 48.448C152.306 48.448 152.768 48.3013 153.149 48.008L154.073 50.428ZM161.267 51.176C160.02 51.176 158.898 50.9193 157.901 50.406C156.918 49.878 156.148 49.152 155.591 48.228C155.033 47.304 154.755 46.2553 154.755 45.082C154.755 43.9087 155.033 42.86 155.591 41.936C156.148 41.012 156.918 40.2933 157.901 39.78C158.898 39.252 160.02 38.988 161.267 38.988C162.513 38.988 163.628 39.252 164.611 39.78C165.593 40.2933 166.363 41.012 166.921 41.936C167.478 42.86 167.757 43.9087 167.757 45.082C167.757 46.2553 167.478 47.304 166.921 48.228C166.363 49.152 165.593 49.878 164.611 50.406C163.628 50.9193 162.513 51.176 161.267 51.176ZM161.267 48.36C162.147 48.36 162.865 48.0667 163.423 47.48C163.995 46.8787 164.281 46.0793 164.281 45.082C164.281 44.0847 163.995 43.2927 163.423 42.706C162.865 42.1047 162.147 41.804 161.267 41.804C160.387 41.804 159.661 42.1047 159.089 42.706C158.517 43.2927 158.231 44.0847 158.231 45.082C158.231 46.0793 158.517 46.8787 159.089 47.48C159.661 48.0667 160.387 48.36 161.267 48.36ZM173.329 40.726C173.739 40.154 174.289 39.7213 174.979 39.428C175.683 39.1347 176.489 38.988 177.399 38.988V42.156C177.017 42.1267 176.761 42.112 176.629 42.112C175.646 42.112 174.876 42.3907 174.319 42.948C173.761 43.4907 173.483 44.312 173.483 45.412V51H170.051V39.164H173.329V40.726ZM190.926 45.126C190.926 45.17 190.904 45.478 190.86 46.05H181.906C182.067 46.7833 182.449 47.3627 183.05 47.788C183.651 48.2133 184.399 48.426 185.294 48.426C185.91 48.426 186.453 48.338 186.922 48.162C187.406 47.9713 187.853 47.678 188.264 47.282L190.09 49.262C188.975 50.538 187.347 51.176 185.206 51.176C183.871 51.176 182.691 50.9193 181.664 50.406C180.637 49.878 179.845 49.152 179.288 48.228C178.731 47.304 178.452 46.2553 178.452 45.082C178.452 43.9233 178.723 42.882 179.266 41.958C179.823 41.0193 180.579 40.2933 181.532 39.78C182.5 39.252 183.578 38.988 184.766 38.988C185.925 38.988 186.973 39.2373 187.912 39.736C188.851 40.2347 189.584 40.9533 190.112 41.892C190.655 42.816 190.926 43.894 190.926 45.126ZM184.788 41.584C184.011 41.584 183.358 41.804 182.83 42.244C182.302 42.684 181.979 43.2853 181.862 44.048H187.692C187.575 43.3 187.252 42.706 186.724 42.266C186.196 41.8113 185.551 41.584 184.788 41.584Z" fill="white"/>
</svg>
