<svg width="90" height="90" viewBox="0 0 90 90" fill="none" xmlns="http://www.w3.org/2000/svg">
<path d="M83.8525 57.9925C84.7625 54.0475 84.46 49.8275 82.7075 45.6275C81.0125 41.565 78.09 38.3525 74.53 36.195C75.325 33.215 75.115 30.0075 73.72 26.82C71.6175 22.02 67.07 18.8175 61.94 17.915C62.5625 16.485 62.7625 14.6925 62.03 12.4975C59.53 4.9975 49.53 9.9975 42.03 0C35.93 3.66 34.605 9.1 34.835 13.7175C28.7825 14.7475 25.335 16.0575 25.335 16.0575V16.0625C21.935 17.4375 19.53 20.77 19.53 24.6675C19.53 26.865 20.325 28.8575 21.6 30.4475L19.87 31.0925L19.8725 31.1C14.0475 33.2775 9.935 38.54 9.935 44.6975C9.935 47.315 10.685 49.765 11.985 51.8925C4.9275 55.065 0 61.95 0 69.9975C0 81.0425 9.2275 89.9975 20.61 89.9975C28.7825 89.9975 37.0075 88.24 44.4375 85.835C50.045 88.435 58.675 89.9975 71.6675 89.9975C81.7925 89.9975 90 81.79 90 71.665C90 66.225 87.6175 61.3525 83.8525 57.9925Z" fill="#BF6952"/>
<path d="M33.7509 49.9989C38.5836 49.9989 42.5012 44.9619 42.5012 38.7486C42.5012 32.5352 38.5836 27.4982 33.7509 27.4982C28.9183 27.4982 25.0007 32.5352 25.0007 38.7486C25.0007 44.9619 28.9183 49.9989 33.7509 49.9989Z" fill="#F5F8FA"/>
<path d="M58.7502 49.9981C63.5828 49.9981 67.5004 44.9612 67.5004 38.7478C67.5004 32.5344 63.5828 27.4975 58.7502 27.4975C53.9176 27.4975 49.9999 32.5344 49.9999 38.7478C49.9999 44.9612 53.9176 49.9981 58.7502 49.9981Z" fill="#F5F8FA"/>
<path d="M35.001 44.9987C37.7625 44.9987 40.0011 42.2004 40.0011 38.7486C40.0011 35.2967 37.7625 32.4984 35.001 32.4984C32.2395 32.4984 30.0008 35.2967 30.0008 38.7486C30.0008 42.2004 32.2395 44.9987 35.001 44.9987Z" fill="#292F33"/>
<path d="M57.5001 44.9978C60.2616 44.9978 62.5003 42.1995 62.5003 38.7477C62.5003 35.2958 60.2616 32.4975 57.5001 32.4975C54.7386 32.4975 52.5 35.2958 52.5 38.7477C52.5 42.1995 54.7386 44.9978 57.5001 44.9978Z" fill="#292F33"/>
<path d="M23.6174 62.235C23.0024 61.0025 23.6249 59.9975 24.9999 59.9975H69.9999C71.3749 59.9975 71.9974 61.0025 71.3824 62.235C71.3824 62.235 64.9999 74.9975 47.4999 74.9975C29.9999 74.9975 23.6174 62.235 23.6174 62.235Z" fill="#292F33"/>
<path d="M47.5004 64.9975C40.5727 64.9975 34.6076 67.3026 31.77 70.6376C35.5001 73.0252 40.6327 74.9978 47.5004 74.9978C54.3681 74.9978 59.5033 73.0252 63.2309 70.6376C60.3933 67.3026 54.4281 64.9975 47.5004 64.9975Z" fill="#F2ABBA"/>
</svg>
