<svg width="90" height="90" viewBox="0 0 90 90" fill="none" xmlns="http://www.w3.org/2000/svg">
<path d="M45 85.0451C69.8528 85.0451 90 66.0071 90 42.5226C90 19.038 69.8528 0 45 0C20.1472 0 0 19.038 0 42.5226C0 66.0071 20.1472 85.0451 45 85.0451Z" fill="#FFCB4C"/>
<path d="M35.7988 52.5729C35.415 52.2827 35.1159 51.8875 34.9729 51.4123C34.6182 50.2616 35.317 49.116 36.5347 48.8584C48.5206 46.3045 56.5914 52.2677 56.9329 52.5228C57.9494 53.2882 58.1479 54.6365 57.3909 55.5369C56.6338 56.4324 55.1991 56.54 54.1853 55.7796C53.8941 55.5695 47.5067 50.9695 37.8211 53.0331C37.0959 53.1857 36.3547 52.9931 35.7988 52.5729Z" fill="#65471B"/>
<path d="M32.0797 34.5483C35.1863 34.5483 37.7047 31.5739 37.7047 27.9048C37.7047 24.2356 35.1863 21.2612 32.0797 21.2612C28.9731 21.2612 26.4547 24.2356 26.4547 27.9048C26.4547 31.5739 28.9731 34.5483 32.0797 34.5483Z" fill="#65471B"/>
<path d="M61.875 37.2048C64.9816 37.2048 67.5 34.2304 67.5 30.5612C67.5 26.8921 64.9816 23.9177 61.875 23.9177C58.7684 23.9177 56.25 26.8921 56.25 30.5612C56.25 34.2304 58.7684 37.2048 61.875 37.2048Z" fill="#65471B"/>
<path d="M43.0836 87.874C43.0836 87.874 46.4321 86.846 46.8662 84.4923C47.3242 82.061 45.2145 81.5732 45.2145 81.5732C45.2145 81.5732 47.9701 81.0529 48.3168 78.1314C48.6424 75.3774 46.0377 74.7221 46.0377 74.7221C46.0377 74.7221 48.6053 73.7215 48.7271 70.8725C48.8277 68.4738 46.0933 67.3006 46.0933 67.3006C46.0933 67.3006 59.4292 64.2465 60.8003 63.9464C62.1662 63.6462 64.2945 62.408 63.6301 59.7091C62.9709 57.0077 60.443 56.9126 59.138 57.2003C57.8303 57.4879 41.2862 61.1174 35.5792 62.373L31.77 63.2085C30.3406 63.5261 29.6921 62.9333 30.7006 61.9278C32.0453 60.5871 32.9056 59.1038 33.2048 56.6425C33.5198 54.0536 32.5906 50.8569 32.0586 49.6162C31.0686 47.3125 29.3983 45.4916 27.4686 44.8662C24.4589 43.8907 22.32 45.6692 23.3868 48.7708C24.9856 53.4083 23.9374 57.2128 21.1818 59.509C14.6992 64.9044 11.6842 68.7514 13.6906 76.9508C15.8824 85.893 25.2768 91.6486 34.74 89.5775L43.0836 87.874Z" fill="#F19020"/>
<path d="M21.9601 15.8409C21.526 15.6208 21.1581 15.2806 20.9251 14.8429C20.3534 13.7723 20.8193 12.5241 21.9654 12.0614C33.2578 7.48147 42.3451 11.9538 42.7263 12.1464C43.8725 12.7242 44.3357 14.0149 43.7613 15.033C43.1895 16.046 41.8025 16.3987 40.6563 15.8284C40.3307 15.6708 33.1598 12.2465 24.0381 15.946C23.3578 16.2186 22.5901 16.1586 21.9601 15.8409ZM54.0822 25.2209C53.6693 24.9757 53.3251 24.6131 53.124 24.1603C52.629 23.0547 53.1848 21.8416 54.3628 21.4489C65.9596 17.6068 74.7054 22.6495 75.0707 22.8671C76.1693 23.5175 76.5398 24.8357 75.8966 25.8137C75.256 26.7892 73.8425 27.0518 72.744 26.409C72.4263 26.2289 65.5254 22.3544 56.1548 25.461C55.4507 25.6886 54.691 25.5761 54.0822 25.2209Z" fill="#65471B"/>
</svg>
