<svg width="90" height="90" viewBox="0 0 90 90" fill="none" xmlns="http://www.w3.org/2000/svg">
<path d="M45 90C69.8528 90 90 69.8528 90 45C90 20.1472 69.8528 0 45 0C20.1472 0 0 20.1472 0 45C0 69.8528 20.1472 90 45 90Z" fill="#50A5E6"/>
<path d="M29.9625 46.72C33.4142 46.72 36.2125 42.8025 36.2125 37.97C36.2125 33.1375 33.4142 29.22 29.9625 29.22C26.5107 29.22 23.7125 33.1375 23.7125 37.97C23.7125 42.8025 26.5107 46.72 29.9625 46.72Z" fill="#1C6399"/>
<path d="M59.9625 46.72C63.4142 46.72 66.2125 42.8025 66.2125 37.97C66.2125 33.1375 63.4142 29.22 59.9625 29.22C56.5107 29.22 53.7125 33.1375 53.7125 37.97C53.7125 42.8025 56.5107 46.72 59.9625 46.72Z" fill="#1C6399"/>
<path d="M62.4625 54.5825C67.985 54.5825 72.4625 59.06 72.4625 64.5825C72.4625 70.105 67.985 74.5825 62.4625 74.5825H27.4625C21.94 74.5825 17.4625 70.105 17.4625 64.5825C17.4625 59.06 21.94 54.5825 27.4625 54.5825H62.4625Z" fill="white"/>
<path d="M62.4625 52.03H27.4625C20.57 52.03 14.9625 57.6375 14.9625 64.53C14.9625 71.4225 20.57 77.03 27.4625 77.03H62.4625C69.355 77.03 74.9625 71.4225 74.9625 64.53C74.9625 57.6375 69.355 52.03 62.4625 52.03ZM62.4625 57.03C66.17 57.03 69.2375 59.74 69.835 63.28H61.2125V57.03H62.4625ZM58.7125 57.03V63.28H51.2125V57.03H58.7125ZM48.7125 57.03V63.28H41.2125V57.03H48.7125ZM38.7125 57.03V63.28H31.2125V57.03H38.7125ZM27.4625 57.03H28.7125V63.28H20.0875C20.6875 59.7425 23.755 57.03 27.4625 57.03ZM27.4625 72.03C23.755 72.03 20.6875 69.32 20.09 65.78H28.7125V72.03H27.4625ZM31.2125 72.03V65.78H38.7125V72.03H31.2125ZM41.2125 72.03V65.78H48.7125V72.03H41.2125ZM51.2125 72.03V65.78H58.7125V72.03H51.2125ZM62.4625 72.03H61.2125V65.78H69.835C69.2375 69.32 66.17 72.03 62.4625 72.03Z" fill="#1C6399"/>
<path d="M89.39 37.9699C89.39 36.8574 89.275 43.5699 80.01 46.4549C76.3575 47.5924 76.79 52.9049 76.8475 54.3349C77.0475 59.2724 77.8425 64.0649 78.09 65.3149C78.34 66.5824 79.3575 70.5799 79.595 71.7874C79.8575 73.1174 80.1975 77.8024 80.4275 78.9699C80.705 80.3774 80.965 81.3899 81.1775 82.4649C81.6375 84.7874 82.2375 86.4599 83.2575 86.4599C84.28 86.4599 84.2975 83.6474 84.755 81.3274C84.9675 80.2549 85.0225 79.3599 85.3 77.9549C85.53 76.7949 86.2075 68.8524 86.4625 67.5649C86.705 66.3374 88.0525 61.1449 88.2975 59.8974C88.5475 58.6299 89.295 53.6624 89.495 52.4499C90.69 45.2074 89.39 37.9724 89.39 37.9699ZM0.782471 53.4374C0.782471 52.7124 2.31497 56.3474 3.65247 57.1574C5.37747 58.2024 6.72747 60.1574 8.75247 61.8749C10.7775 63.5924 10.7725 66.8099 10.6925 68.3599C10.3525 74.9999 9.47747 81.6074 9.28747 82.4224C9.09747 83.2499 8.39247 89.4799 7.46247 89.4799C6.53247 89.4799 6.07997 87.2849 5.72997 85.7699L5.16747 83.3274C4.99247 82.5724 4.86747 81.7499 4.66747 80.8874C4.48747 80.1024 3.61497 74.4199 3.42747 73.6049C3.23747 72.7774 2.41247 69.4974 2.22997 68.7099C2.02997 67.8424 1.94497 66.9999 1.75497 66.2424C0.937471 62.9924 0.782471 53.4399 0.782471 53.4374Z" fill="#BBDDF5"/>
<path d="M14.9651 28.4374C13.5851 28.4374 12.4651 27.3174 12.4651 25.9374C12.4651 24.5599 13.5776 23.4424 14.9551 23.4374C15.3451 23.4324 23.8776 23.2224 30.4676 14.4374C31.2951 13.3374 32.8601 13.1074 33.9676 13.9374C35.0726 14.7649 35.2951 16.3324 34.4676 17.4374C26.3101 28.3124 15.4251 28.4374 14.9651 28.4374ZM74.9651 28.4374C74.5051 28.4374 63.6226 28.3124 55.4651 17.4374C54.6351 16.3324 54.8601 14.7649 55.9651 13.9374C57.0676 13.1049 58.6326 13.3324 59.4626 14.4374C66.0651 23.2399 74.6176 23.4349 74.9776 23.4374C76.3526 23.4524 77.4626 24.5774 77.4551 25.9499C77.4501 27.3274 76.3401 28.4374 74.9651 28.4374Z" fill="#1C6399"/>
<path d="M60.665 2.81257C60.665 2.81257 58.1875 1.76007 57.3725 1.51007C56.655 1.29007 54.39 0.820073 52.99 0.550073C51.4275 0.247573 49.755 0.262573 49.755 0.262573C49.755 0.262573 49.68 1.26757 50.04 2.82507C50.33 4.08007 51.05 5.82007 51.185 6.72257C51.3325 7.70007 51.355 8.86007 51.5375 10.0926C51.6975 11.1576 51.8575 12.2926 52.03 13.4476C52.1975 14.5626 52.485 15.6826 52.6525 16.8001C52.8275 17.9601 52.9075 19.1126 53.07 20.1826C53.255 21.4226 53.045 22.6276 53.1925 23.6101C53.495 25.6251 54.025 28.4401 54.5975 28.4401C55.17 28.4401 55.675 25.8926 55.9775 23.8701C56.125 22.8926 55.91 22.1326 56.095 20.9001C56.255 19.8351 56.39 18.7751 56.565 17.6201C56.7325 16.5051 56.8675 15.4151 57.035 14.3001C57.21 13.1401 57.1875 12.0101 57.3475 10.9401C57.5325 9.70007 58.255 8.17257 58.4025 7.19007C58.7 5.17507 60.665 2.81257 60.665 2.81257ZM14.6875 23.4476C14.6875 23.4476 16.515 23.0376 18.255 22.6751C19.3875 22.4401 20.285 21.5276 22.1375 20.8526C24.065 20.1501 25.305 19.5426 25.305 19.5426C25.305 19.5426 25.4625 22.8051 25.0325 24.4326C24.685 25.7451 24.5025 27.4401 24.3425 28.3826C24.1675 29.4026 24.07 30.6051 23.85 31.8926C23.66 33.0051 23.31 34.1676 23.1025 35.3776C22.9025 36.5451 22.7425 37.9126 22.5425 39.0801C22.335 40.2926 22.28 41.3351 22.0875 42.4526C21.865 43.7476 22.0325 43.8776 21.855 44.9026C21.4925 47.0101 21.4425 46.7201 21.325 47.8676C21.2075 49.0151 20.34 49.1576 19.965 48.3176C19.59 47.4776 19.9875 47.0151 19.625 44.9001C19.45 43.8801 18.8075 41.1826 18.6 39.9751C18.4 38.8076 18.13 36.9776 17.93 35.8101C17.7225 34.5976 17.67 32.6426 17.4775 31.5226C17.255 30.2276 16.915 29.4276 16.74 28.4026C16.3775 26.3001 14.6875 23.4476 14.6875 23.4476Z" fill="#BBDDF5"/>
</svg>
