<svg width="269" height="268" viewBox="0 0 269 268" fill="none" xmlns="http://www.w3.org/2000/svg">
<path d="M250.319 137.829C260.636 137.829 269 125.83 269 111.029C269 96.2273 260.636 84.2286 250.319 84.2286C240.002 84.2286 231.639 96.2273 231.639 111.029C231.639 125.83 240.002 137.829 250.319 137.829Z" fill="#F4900C"/>
<path d="M18.6806 137.829C28.9975 137.829 37.3611 125.83 37.3611 111.029C37.3611 96.2273 28.9975 84.2286 18.6806 84.2286C8.36357 84.2286 0 96.2273 0 111.029C0 125.83 8.36357 137.829 18.6806 137.829Z" fill="#F4900C"/>
<path d="M254.056 145.486C254.056 149.72 250.715 153.143 246.583 153.143H224.167C220.035 153.143 216.694 149.72 216.694 145.486V76.5715C216.694 72.3448 220.035 68.9144 224.167 68.9144H246.583C250.715 68.9144 254.056 72.3448 254.056 76.5715V145.486ZM52.3056 145.486C52.3056 149.72 48.958 153.143 44.8333 153.143H22.4167C18.292 153.143 14.9444 149.72 14.9444 145.486V76.5715C14.9444 72.3448 18.292 68.9144 22.4167 68.9144H44.8333C48.958 68.9144 52.3056 72.3448 52.3056 76.5715V145.486Z" fill="#FFAC33"/>
<path d="M209.222 38.2857C209.222 59.4271 175.762 68.9143 134.5 68.9143C93.2309 68.9143 59.7778 59.4271 59.7778 38.2857C59.7778 17.1443 93.2309 0 134.5 0C175.762 0 209.222 17.1443 209.222 38.2857Z" fill="#FFCC4D"/>
<path d="M186.806 31.2643C186.806 43.6 163.38 53.6002 134.5 53.6002C105.612 53.6002 82.1945 43.6 82.1945 31.2643C82.1945 18.9286 105.612 8.92841 134.5 8.92841C163.38 8.92841 186.806 18.9286 186.806 31.2643Z" fill="#F4900C"/>
<path d="M224.167 42.1142C224.167 52.6887 215.805 53.5999 205.486 53.5999H63.5139C53.1948 53.5999 44.8334 52.6887 44.8334 42.1142C44.8334 31.5397 53.1948 22.9714 63.5139 22.9714H205.486C215.805 22.9714 224.167 31.5397 224.167 42.1142Z" fill="#226699"/>
<path d="M224.167 45.9428H44.8333C36.584 45.9428 29.8889 52.8036 29.8889 61.2571V260.343H239.111V61.2571C239.111 52.8036 232.416 45.9428 224.167 45.9428Z" fill="#55ACEE"/>
<path d="M261.528 252.686V245.029C261.528 236.575 254.833 229.714 246.583 229.714H164.919L139.783 255.473C136.861 258.467 132.139 258.467 129.217 255.473L104.081 229.714H22.4166C14.1673 229.714 7.4722 236.575 7.4722 245.029V252.686C7.4722 261.139 6.69509 268 14.9444 268H254.055C262.305 268 261.528 261.139 261.528 252.686Z" fill="#3B88C3"/>
<path d="M183.069 145.486C201.64 145.486 216.694 130.059 216.694 111.029C216.694 91.9985 201.64 76.5715 183.069 76.5715C164.499 76.5715 149.444 91.9985 149.444 111.029C149.444 130.059 164.499 145.486 183.069 145.486Z" fill="white"/>
<path d="M183.069 131.864C194.298 131.864 203.401 122.535 203.401 111.029C203.401 99.5217 194.298 90.1935 183.069 90.1935C171.84 90.1935 162.737 99.5217 162.737 111.029C162.737 122.535 171.84 131.864 183.069 131.864Z" fill="#DD2E44"/>
<path d="M85.9306 145.486C104.501 145.486 119.556 130.059 119.556 111.029C119.556 91.9985 104.501 76.5715 85.9306 76.5715C67.36 76.5715 52.3056 91.9985 52.3056 111.029C52.3056 130.059 67.36 145.486 85.9306 145.486Z" fill="white"/>
<path d="M216.694 195.257C216.694 205.832 208.333 214.4 198.014 214.4H70.9861C60.667 214.4 52.3056 205.832 52.3056 195.257C52.3056 184.683 60.667 176.115 70.9861 176.115H198.014C208.333 176.115 216.694 184.683 216.694 195.257Z" fill="#F5F8FA"/>
<path d="M127.028 176.115H141.972V214.4H127.028V176.115ZM89.6667 176.115H104.611V214.4H89.6667V176.115ZM164.389 176.115H179.333V214.4H164.389V176.115ZM52.3056 195.257C52.3056 204.523 58.7242 212.241 67.25 214.017V176.497C58.7242 178.274 52.3056 185.992 52.3056 195.257ZM201.75 176.497V214.01C210.276 212.233 216.694 204.515 216.694 195.25C216.694 185.985 210.276 178.274 201.75 176.497Z" fill="#CCD6DD"/>
<path d="M85.9306 131.864C97.1596 131.864 106.262 122.535 106.262 111.029C106.262 99.5217 97.1596 90.1935 85.9306 90.1935C74.7016 90.1935 65.5987 99.5217 65.5987 111.029C65.5987 122.535 74.7016 131.864 85.9306 131.864Z" fill="#DD2E44"/>
</svg>
