<svg width="90" height="90" viewBox="0 0 90 90" fill="none" xmlns="http://www.w3.org/2000/svg">
<path d="M87.5857 0.745771C85.8971 -2.36938 69.0362 4.96597 62.5323 9.99621C62.5323 9.99621 52.5109 7.50109 44.9949 7.50109C37.4789 7.50109 27.4575 9.99621 27.4575 9.99621C20.9537 4.96597 4.09272 -2.36938 2.40412 0.745771C-2.60656 9.99621 4.90946 32.4973 4.90946 32.4973C2.65967 36.9875 1.67507 40.8177 0.843296 47.4655C1.72768 47.223 2.74735 47.073 4.01255 47.073C16.5443 47.073 23.697 67.4364 22.4318 84.3872C31.3183 88.5024 41.1317 90 44.9949 90C48.8757 90 58.7668 88.4874 67.6883 84.3247C66.4431 67.3864 73.5934 47.073 86.1101 47.073C87.3126 47.073 88.2847 47.218 89.1415 47.4355C88.3122 40.8052 87.3277 36.98 85.0804 32.4973C85.0804 32.4973 92.5964 9.99621 87.5857 0.745771Z" fill="#FFCC4D"/>
<path d="M44.9949 37.4975C52.5109 37.4975 52.5109 38.7476 52.5109 41.2477C52.5109 43.7478 48.7529 48.748 44.9949 48.748C41.2369 48.748 37.4789 43.7478 37.4789 41.2477C37.4789 38.7476 37.4764 37.4975 44.9949 37.4975Z" fill="#E75A70"/>
<path d="M4.90938 7.49608C6.02927 4.14093 19.0395 9.9962 21.5448 12.4963C21.5448 12.4963 9.92006 19.9967 7.41472 27.497C7.41472 27.497 2.40404 14.9964 4.90938 7.49608ZM85.0803 7.49608C83.9604 4.14093 70.9502 9.9962 68.4448 12.4963C68.4448 12.4963 80.0696 19.9967 82.5749 27.497C82.5749 27.497 87.5856 14.9964 85.0803 7.49608Z" fill="#F18F26"/>
<path d="M12.2603 14.0039C12.2603 10.4687 27.4577 17.4965 24.9524 19.9967C22.447 22.4968 19.9417 24.0043 17.4363 26.5045C14.931 29.0046 12.2603 16.504 12.2603 14.0039ZM77.7299 14.0039C77.7299 10.4687 62.5325 17.4965 65.0378 19.9967C67.5432 22.4968 70.0485 24.0043 72.5538 26.5045C75.0592 29.0046 77.7299 16.504 77.7299 14.0039Z" fill="#FFCC4D"/>
<path d="M27.5554 53.7533C23.0433 53.4033 19.0648 53.7133 15.625 54.3383C16.121 55.0683 16.592 55.8384 17.0405 56.6484C20.067 56.1659 23.5193 55.9509 27.3625 56.2434C28.064 56.3459 28.6553 55.7834 28.7079 55.0933C28.758 54.4058 28.2444 53.8033 27.5554 53.7533ZM24.2459 48.3955C14.2195 45.2704 5.71637 46.4654 2.34418 47.1755C2.86028 47.1155 3.39893 47.0705 4.01273 47.0705C6.23998 47.0705 8.29687 47.7205 10.1684 48.8756C13.8813 48.823 18.5011 49.2256 23.4993 50.7856C23.622 50.8256 23.7498 50.8406 23.8726 50.8406C24.4062 50.8406 24.8998 50.4981 25.0676 49.9631C25.2756 49.3056 24.9073 48.603 24.2459 48.3955ZM74.4855 54.3608C71.0181 53.7208 66.9995 53.4008 62.4373 53.7533C61.7483 53.8033 61.2322 54.4058 61.2848 55.0933C61.3374 55.7809 61.9287 56.3459 62.6302 56.2434C66.5235 55.9484 70.0209 56.1684 73.0775 56.6659C73.5209 55.8584 73.9894 55.0883 74.4855 54.3608ZM79.9546 48.8756C81.8261 47.7205 83.883 47.0705 86.1127 47.0705C86.6539 47.0705 87.1224 47.1155 87.5884 47.163C84.1786 46.4529 75.7156 45.2879 65.7468 48.3955C65.0854 48.603 64.7171 49.3031 64.9251 49.9631C65.0929 50.4981 65.5865 50.8406 66.1201 50.8406C66.2429 50.8406 66.3707 50.8231 66.4934 50.7856C71.5492 49.2056 76.2217 48.8105 79.9546 48.8756Z" fill="#FEE7B8"/>
<path d="M44.9949 52.4982C39.4606 52.4982 34.9735 56.9759 34.9735 62.4987V77.4994C34.9735 83.0222 39.4606 87.4999 44.9949 87.4999C50.5292 87.4999 55.0163 83.0222 55.0163 77.4994V62.4987C55.0163 56.9759 50.5292 52.4982 44.9949 52.4982Z" fill="#292F33"/>
<path d="M18.3057 26.6595C15.9356 34.5999 18.5737 42.3928 24.1982 44.0653C29.8252 45.7404 36.309 40.6602 38.6766 32.7198C41.0491 24.7819 38.411 16.9865 32.789 15.314C27.1645 13.6414 20.6782 18.7241 18.3057 26.6595ZM71.6819 26.6595C74.052 34.5999 71.4139 42.3928 65.7894 44.0653C60.1624 45.7404 53.6786 40.6602 51.311 32.7198C48.941 24.7819 51.5791 16.9865 57.2011 15.314C62.8256 13.6414 69.3094 18.7241 71.6819 26.6595Z" fill="#F5F8FA"/>
<path d="M89.4723 47.9555C88.6856 47.663 87.7411 47.498 86.5736 47.498C74.9463 47.498 68.8734 72.5042 71.8597 90H88.0442C83.269 72.3867 92.1931 54.7758 89.4723 47.9555ZM3.41633 47.498C2.25385 47.498 1.31184 47.663 0.527671 47.9555L0.525165 47.9905C-2.18561 54.8483 6.71837 72.5142 1.9482 90H18.1327C21.1141 72.5992 15.0386 47.498 3.41633 47.498Z" fill="#FCAB40"/>
</svg>
