<svg width="90" height="90" viewBox="0 0 90 90" fill="none" xmlns="http://www.w3.org/2000/svg">
<path d="M90 45C90 69.8525 69.8525 90 45 90C20.15 90 0 69.8525 0 45C0 20.15 20.15 0 45 0C69.8525 0 90 20.15 90 45Z" fill="#DA2F47"/>
<path d="M63.7124 74.6975C63.5999 74.25 60.7924 63.75 44.9999 63.75C29.2049 63.75 26.3999 74.25 26.2874 74.6975C26.1499 75.24 26.3949 75.8025 26.8799 76.0825C27.3674 76.355 27.9774 76.28 28.3799 75.89C28.4274 75.8425 33.2649 71.25 44.9999 71.25C56.7349 71.25 61.575 75.8425 61.6199 75.8875C61.86 76.125 62.1799 76.25 62.4999 76.25C62.7099 76.25 62.9224 76.1975 63.1149 76.09C63.6049 75.81 63.8499 75.2425 63.7124 74.6975ZM39.2674 38.2325C31.1299 30.095 18.0524 30 17.4999 30C16.1199 30 15.0024 31.1175 15.0024 32.495C14.9999 33.875 16.1174 34.995 17.4974 35C17.5699 35 22.3099 35.0575 27.4549 36.8425C25.9724 38.4425 24.9999 40.9275 24.9999 43.75C24.9999 48.585 27.7974 52.5 31.2499 52.5C34.7024 52.5 37.4999 48.585 37.4999 43.75C37.4999 43.315 37.4524 42.9 37.4074 42.4825C37.4399 42.4825 37.4699 42.5 37.4999 42.5C38.1399 42.5 38.7799 42.255 39.2674 41.7675C40.2449 40.79 40.2449 39.21 39.2674 38.2325ZM72.4999 30C71.9474 30 58.8724 30.095 50.7324 38.2325C49.7549 39.21 49.7549 40.79 50.7324 41.7675C51.2199 42.255 51.8599 42.5 52.4999 42.5C52.5324 42.5 52.5599 42.4825 52.5899 42.4825C52.5499 42.9 52.4999 43.315 52.4999 43.75C52.4999 48.585 55.2974 52.5 58.7499 52.5C62.2024 52.5 64.9999 48.585 64.9999 43.75C64.9999 40.9275 64.0274 38.4425 62.5449 36.8425C67.6899 35.0575 72.43 35 72.505 35C73.8825 34.995 75 33.875 74.9974 32.495C74.9949 31.1175 73.8799 30 72.4999 30Z" fill="#292F33"/>
<path d="M74.3475 82.5H15.6525C12.5425 82.5 10 79.9575 10 76.8475V62.5C10 59.39 12.5425 56.8475 15.6525 56.8475H74.3475C77.4575 56.8475 80 59.39 80 62.5V76.8475C80 79.9575 77.4575 82.5 74.3475 82.5Z" fill="#292F33"/>
<path d="M19.6025 68.0726H17.5575C16.7725 68.0726 16.415 67.5001 16.415 66.9301C16.415 66.3601 16.7725 65.7901 17.5575 65.7901H19.9325L20.455 61.9651C20.5725 61.1101 20.93 60.8251 21.6425 60.8251C22.2125 60.8251 22.7375 61.2026 22.7375 61.7751C22.7375 62.1326 22.7375 61.9651 22.69 62.3476L22.215 65.7926H24.4975L25.02 61.9676C25.1375 61.1126 25.495 60.8276 26.2075 60.8276C26.7775 60.8276 27.3025 61.2051 27.3025 61.7776C27.3025 62.1351 27.3025 61.9676 27.255 62.3501L26.7775 65.7951H28.8225C29.6075 65.7951 29.9625 66.3676 29.9625 66.9351C29.9625 67.5051 29.605 68.0776 28.8225 68.0776H26.445L26.065 70.7851H28.11C28.895 70.7851 29.25 71.3576 29.25 71.9276C29.25 72.4976 28.8925 73.0676 28.11 73.0676H25.7325L25.21 76.8926C25.09 77.7501 24.7325 78.0326 24.02 78.0326C23.45 78.0326 22.925 77.6551 22.925 77.0826C22.925 76.7251 22.925 76.8926 22.9725 76.5101L23.45 73.0651H21.17L20.6475 76.8901C20.5275 77.7476 20.1725 78.0301 19.4575 78.0301C18.8875 78.0301 18.3625 77.6526 18.3625 77.0801C18.3625 76.7226 18.3625 76.8901 18.41 76.5076L18.885 73.0626H16.845C16.0625 73.0626 15.705 72.4901 15.705 71.9226C15.705 71.3501 16.0625 70.7801 16.845 70.7801H19.2225L19.6025 68.0726ZM21.5275 70.7801H23.785L24.165 68.0726H21.9075L21.5275 70.7801ZM33.0675 64.5301C33.0675 62.4626 34.6125 60.6801 36.7275 60.6801C38.8425 60.6801 40.3875 62.4626 40.3875 64.5301C40.3875 66.5976 38.8425 68.3576 36.7275 68.3576C34.61 68.3601 33.0675 66.6001 33.0675 64.5301ZM37.9625 64.5301C37.9625 63.7701 37.51 63.1051 36.7275 63.1051C35.9425 63.1051 35.49 63.7726 35.49 64.5301C35.49 65.2926 35.9425 65.9351 36.7275 65.9351C37.51 65.9351 37.9625 65.2926 37.9625 64.5301ZM43.7375 61.3001C44.0475 60.7076 44.285 60.5401 44.8325 60.5401C45.57 60.5401 46.235 61.1326 46.235 61.8701C46.235 62.0601 46.235 62.2276 46.045 62.5826L38.06 77.5301C37.7025 78.0276 37.56 78.3126 36.99 78.3126C36.3725 78.3126 35.635 77.7201 35.635 77.0076C35.635 76.6501 35.7775 76.3201 35.8725 76.1276L43.7375 61.3001ZM41.4325 74.3476C41.4325 72.2801 42.9775 70.4976 45.0925 70.4976C47.2075 70.4976 48.7525 72.2801 48.7525 74.3476C48.7525 76.4126 47.2075 78.1726 45.0925 78.1726C42.975 78.1751 41.4325 76.4126 41.4325 74.3476ZM46.3275 74.3476C46.3275 73.5851 45.875 72.9226 45.09 72.9226C44.305 72.9226 43.8525 73.5876 43.8525 74.3476C43.8525 75.1076 44.305 75.7501 45.09 75.7501C45.875 75.7501 46.3275 75.1076 46.3275 74.3476ZM52.5425 76.3201C52.5425 75.2976 53.375 74.4651 54.395 74.4651C55.4175 74.4651 56.25 75.2976 56.25 76.3201C56.25 77.3401 55.4175 78.1726 54.395 78.1726C53.375 78.1751 52.5425 77.3426 52.5425 76.3201ZM52.685 62.2976C52.685 61.3001 53.42 60.6826 54.395 60.6826C55.3475 60.6826 56.1075 61.3251 56.1075 62.2976V71.4476C56.1075 72.4226 55.3475 73.0626 54.395 73.0626C53.42 73.0626 52.685 72.4451 52.685 71.4476V62.2976ZM72.88 78.3151C72.4125 78.3151 72.12 78.1826 71.8025 77.8251L69.9925 75.8501L69.8125 76.0151C68.0575 77.6276 66.5425 78.3126 64.7525 78.3126C61.98 78.3126 59.18 76.7326 59.18 73.2026C59.18 70.4351 61.3475 68.7801 62.64 68.0401L62.9325 67.8726L62.695 67.6276C61.6325 66.5151 61.1975 65.5951 61.1975 64.4551C61.1975 61.7626 63.655 60.5376 65.9375 60.5376C67.8475 60.5376 70.5375 61.6701 70.5375 64.1826C70.5375 66.5601 68.33 67.9351 67.655 68.3001L67.3675 68.4551L70.27 71.8076L71.38 70.4676C71.9975 69.7251 72.3575 69.4126 72.995 69.4126C73.5075 69.4126 74.055 69.8726 74.055 70.7201C74.055 71.3551 73.425 72.1826 72.8075 72.9076L72.065 73.7451L73.83 75.8401C74.1575 76.2301 74.2925 76.4376 74.2925 76.9101C74.295 77.6476 73.62 78.3151 72.88 78.3151ZM64.2625 69.6301C63.1925 70.3476 62.1025 71.2926 62.1025 72.8576C62.1025 74.4976 63.17 75.5551 64.825 75.5551C66.205 75.5551 67.0975 74.9501 68.0125 74.0401L68.19 73.8676L64.44 69.5101L64.2625 69.6301ZM65.94 62.8526C65.24 62.8526 64.265 63.4251 64.265 64.3576C64.265 65.2276 64.6925 65.7576 65.6 66.6801L65.7275 66.8101L65.885 66.7276C67.1275 66.0776 67.7575 65.3451 67.7575 64.5551C67.76 63.3851 66.8175 62.8526 65.94 62.8526Z" fill="white"/>
</svg>
