<svg width="90" height="90" viewBox="0 0 90 90" fill="none" xmlns="http://www.w3.org/2000/svg">
<path d="M45 89.9999C69.8528 89.9999 90 69.8527 90 44.9999C90 20.1472 69.8528 0 45 0C20.1472 0 0 20.1472 0 44.9999C0 69.8527 20.1472 89.9999 45 89.9999Z" fill="#AA8DD8"/>
<path d="M25 10C18.55 10 10.9225 3.83506 8.535 1.46506C7.1075 0.0350615 4.9525 -0.392438 3.0875 0.382561C1.2175 1.15506 0 2.97756 0 5.00006C0 13.6475 4.18 30 20 30C21.8925 30 23.625 28.93 24.4725 27.235L29.4725 17.235C30.2475 15.685 30.165 13.845 29.2525 12.37C28.3425 10.8975 26.7325 10 25 10ZM86.915 0.382561C85.04 -0.394938 82.8975 0.0350615 81.465 1.46756C79.25 3.68006 71.4725 10 65 10C63.2675 10 61.6575 10.8975 60.7475 12.3725C59.8375 13.845 59.755 15.6875 60.5275 17.2375L65.5275 27.2375C66.375 28.93 68.105 30 70 30C85.82 30 90 13.6475 90 5.00006C90 2.97756 88.7825 1.15506 86.915 0.382561Z" fill="#AA8DD8"/>
<path d="M68.3374 64.0724C67.8924 63.6699 67.2275 63.6449 66.75 63.9999C66.6525 64.0724 56.9449 71.2499 44.9999 71.2499C33.0849 71.2499 23.3449 64.0724 23.2499 63.9999C22.7724 63.6449 22.1074 63.6749 21.6624 64.0724C21.2199 64.4724 21.1199 65.1324 21.4274 65.6424C21.7499 66.1799 29.4699 78.7499 44.9999 78.7499C60.5299 78.7499 68.2524 66.1799 68.5724 65.6424C68.88 65.1299 68.7824 64.4724 68.3374 64.0724ZM39.2674 45.7324C31.1299 37.595 18.0524 37.5 17.4999 37.5C16.1199 37.5 15.0024 38.6175 15.0024 39.995C14.9999 41.3749 16.1174 42.4974 17.4974 42.4999C17.5699 42.4999 22.3099 42.5549 27.4549 44.3424C25.9724 45.9424 24.9999 48.4274 24.9999 51.2499C24.9999 56.0849 27.7974 59.9999 31.2499 59.9999C34.7024 59.9999 37.4999 56.0849 37.4999 51.2499C37.4999 50.8149 37.4524 50.3999 37.4074 49.9824C37.4399 49.9824 37.4699 49.9999 37.4999 49.9999C38.1399 49.9999 38.7799 49.7549 39.2674 49.2674C40.2449 48.2899 40.2449 46.7099 39.2674 45.7324ZM72.4999 37.5C71.9474 37.5 58.8724 37.595 50.7324 45.7324C49.7549 46.7099 49.7549 48.2899 50.7324 49.2674C51.2199 49.7549 51.8599 49.9999 52.4999 49.9999C52.5324 49.9999 52.5599 49.9824 52.5899 49.9824C52.5499 50.3999 52.4999 50.8149 52.4999 51.2499C52.4999 56.0849 55.2974 59.9999 58.7499 59.9999C62.2024 59.9999 64.9999 56.0849 64.9999 51.2499C64.9999 48.4274 64.0274 45.9424 62.5449 44.3424C67.6899 42.5549 72.43 42.4999 72.505 42.4999C73.8825 42.4974 75 41.3749 74.9974 39.995C74.9949 38.6175 73.8799 37.5 72.4999 37.5Z" fill="#553986"/>
</svg>
