<svg width="85" height="90" viewBox="0 0 85 90" fill="none" xmlns="http://www.w3.org/2000/svg">
<path d="M85 46.3694C85 36.8455 77.3125 29.1265 67.8275 29.1265C65.38 29.1265 60.9475 30.5774 60.9475 30.5774L28.1325 34.0516C28.1325 34.0516 21.34 30.0829 17.175 30.0829C7.6875 30.0829 0 37.8019 0 47.3258C0 47.9207 0.0299999 48.5081 0.0874999 49.088C1.015 71.8333 19.6225 90 42.5 90C65.9725 90 85 70.8945 85 47.3258C85 47.1952 84.9775 47.0722 84.97 46.9417C84.9775 46.7509 85 46.5627 85 46.3694Z" fill="#FFCB4C"/>
<path d="M42.5001 83.9452C48.4813 83.9452 53.3301 78.382 53.3301 71.5195C53.3301 64.6569 48.4813 59.0938 42.5001 59.0938C36.5188 59.0938 31.6701 64.6569 31.6701 71.5195C31.6701 78.382 36.5188 83.9452 42.5001 83.9452Z" fill="#65471B"/>
<path d="M32.5 51.3573C32.5 55.0549 30.26 58.0521 27.5 58.0521C24.7375 58.0521 22.5 55.0549 22.5 51.3573C22.5 47.6597 24.7375 44.6624 27.5 44.6624C30.26 44.6624 32.5 47.6597 32.5 51.3573ZM62.5 51.3547C62.5 55.0523 60.2625 58.0496 57.5 58.0496C54.7375 58.0496 52.5 55.0523 52.5 51.3547C52.5 47.6597 54.74 44.6599 57.5 44.6599C60.2625 44.6624 62.5 47.6597 62.5 51.3547Z" fill="#65471B"/>
<path d="M13.165 33.9912C13.79 33.5193 15.9475 32.7059 17.455 34.1192C20 36.5014 20.6175 30.4919 28.6475 34.8798C32.32 36.8855 51.12 37.2897 52.895 36.4035C59.625 33.0473 64.815 30.886 66.825 32.0282C68.385 32.9143 64.3925 34.4255 67.3125 34.7694C70.295 35.1208 70.465 33.5393 72.8175 34.1518C76.955 35.2287 70.0825 39.9857 70.0825 39.9857C59.19 48.9598 21.51 42.2524 14.86 38.0377C12.1125 36.2956 12.2 34.7167 13.165 33.9912Z" fill="#F19020"/>
<path d="M71.72 22.512L42.5 19.2412L12.345 22.512C21.485 31.7171 24.455 42.3857 24.455 42.3857L35.5475 44.6248L59.3 44.66C59.2975 44.66 63.125 30.1457 71.72 22.512Z" fill="#D93047"/>
<path d="M70.765 23.3154C73.9675 20.1449 58.8275 18.7442 46.7975 18.7442C34.7675 18.7442 25.9 21.385 25.9 21.385C25.9 21.385 13.17 23.353 14.9125 25.2934C17.3825 28.0397 20.4125 33.2083 20.4125 33.2083C20.4125 33.2083 32.305 39.2454 41.29 31.6368C47.54 35.4022 56.29 34.0693 60.195 27.5979C60.195 27.5979 63.2375 28.735 66.3225 28.9308C66.3225 28.9308 68.705 25.3537 70.765 23.3154Z" fill="#C02334"/>
<path d="M71.5226 38.9063C67.1501 42.0742 66.2951 38.2712 62.3101 38.2712C59.5226 38.2712 59.2326 39.7924 55.3376 41.6048C52.9451 42.7194 49.5226 39.687 47.3976 39.687C44.5226 39.687 41.8551 43.5854 38.1001 41.5195C36.0001 40.3648 34.3826 38.3591 31.5426 38.4344C26.6551 38.5649 26.7576 40.8292 22.4126 40.1012C11.2126 38.221 11.5251 34.1418 11.5251 34.1418L9.88007 44.7677H33.3351L42.8151 49.2812L53.9601 44.7677H67.6926C67.6926 44.7677 69.2951 44.3209 70.4276 43.9092C74.3876 42.4759 74.8601 36.4889 71.5226 38.9063Z" fill="#FFCB4C"/>
<path d="M75.3125 8.98168C74.7125 8.98168 74.145 9.09464 73.5975 9.25529C71.8775 7.13413 69.29 5.75098 66.3525 5.75098C66.135 5.75098 65.93 5.80119 65.715 5.81625C63.88 3.74027 61.23 2.40482 58.2475 2.40482C54.485 2.40482 51.2475 4.51092 49.5325 7.591C48.6675 5.58782 46.685 4.18459 44.3725 4.18459C42.5775 4.18459 41 5.04309 39.97 6.35595C38.7 2.66589 35.25 0 31.145 0C27.8375 0 24.945 1.72956 23.275 4.32516C22.815 4.25236 22.355 4.17957 21.875 4.17957C18.295 4.17957 15.2225 6.21789 13.6425 9.17999C13.135 9.0846 12.6175 9.02184 12.0825 9.02184C7.42252 9.02184 3.64502 12.8148 3.64502 17.4939C3.64502 22.173 7.42252 25.966 12.0825 25.966C13.5525 25.966 14.92 25.5669 16.1175 24.8992C17.0575 25.6071 18.2125 26.0438 19.48 26.0438C19.8425 26.0438 20.1925 26.0037 20.535 25.9359C22.6725 29.3975 26.4525 31.717 30.8075 31.717C35.08 31.717 38.8225 29.4954 40.99 26.1518C42.79 28.3658 45.495 29.8092 48.5625 29.8092C53.1 29.8092 56.88 26.7015 58.0025 22.5019C58.0875 22.5044 58.165 22.527 58.25 22.527C58.9575 22.527 59.6475 22.4492 60.315 22.3086C61.95 23.7043 64.0425 24.5779 66.3575 24.5779C69.2925 24.5779 71.8825 23.1947 73.6 21.0736C74.1475 21.2342 74.715 21.3472 75.315 21.3472C78.715 21.3472 81.4725 18.5784 81.4725 15.1644C81.4725 11.7505 78.7125 8.98168 75.3125 8.98168Z" fill="#E8596E"/>
<path d="M66.9875 19.4319C69.916 19.4319 72.29 17.0482 72.29 14.1077C72.29 11.1672 69.916 8.78342 66.9875 8.78342C64.059 8.78342 61.685 11.1672 61.685 14.1077C61.685 17.0482 64.059 19.4319 66.9875 19.4319Z" fill="#F3AAB9"/>
<path d="M47.1901 14.4489C47.1901 11.4542 44.7726 9.02427 41.7901 9.02427C40.8701 9.02427 40.015 9.2778 39.2575 9.68446C38.6301 8.1758 37.1476 7.11397 35.4151 7.11397C33.9976 7.11397 32.7476 7.82939 31.9951 8.91633C30.3201 7.35244 28.0926 6.37344 25.6251 6.37344C21.2376 6.37344 17.5851 9.41085 16.5626 13.4975C15.6501 12.5763 14.3876 12.0039 12.9901 12.0039C10.2126 12.0039 7.96005 14.2657 7.96005 17.0546C7.96005 19.8434 10.2126 22.1052 12.9901 22.1052C14.7476 22.1052 16.2876 21.199 17.1876 19.8284C18.4801 22.542 21.0101 24.5301 24.0601 25.0472C25.0351 26.7291 26.8276 27.8712 28.9051 27.8712C31.5901 27.8712 33.8276 25.9785 34.3876 23.4532C35.1976 23.905 36.1151 24.1862 37.1051 24.1862C39.7801 24.1862 42.0101 22.306 42.5801 19.7932C45.1851 19.4042 47.1901 17.1725 47.1901 14.4489Z" fill="#F3AAB9"/>
</svg>
