<svg width="105" height="28" viewBox="0 0 105 28" fill="none" xmlns="http://www.w3.org/2000/svg">
<path d="M30.6088 5.2H35.3498V18.232H43.3472V22H30.6088V5.2Z" fill="#222222"/>
<path d="M54.6156 22.336C52.8437 22.336 51.2474 21.96 49.8267 21.208C48.422 20.456 47.3126 19.416 46.4985 18.088C45.7003 16.76 45.3012 15.264 45.3012 13.6C45.3012 11.936 45.7003 10.44 46.4985 9.112C47.3126 7.784 48.422 6.744 49.8267 5.992C51.2474 5.24 52.8437 4.864 54.6156 4.864C56.3875 4.864 57.9758 5.24 59.3805 5.992C60.8012 6.744 61.9106 7.784 62.7087 9.112C63.5229 10.44 63.9299 11.936 63.9299 13.6C63.9299 15.264 63.5229 16.76 62.7087 18.088C61.9106 19.416 60.8012 20.456 59.3805 21.208C57.9758 21.96 56.3875 22.336 54.6156 22.336ZM54.6156 18.4C55.4616 18.4 56.2278 18.2 56.9142 17.8C57.6006 17.4 58.1434 16.84 58.5424 16.12C58.9415 15.384 59.141 14.544 59.141 13.6C59.141 12.656 58.9415 11.824 58.5424 11.104C58.1434 10.368 57.6006 9.8 56.9142 9.4C56.2278 9 55.4616 8.8 54.6156 8.8C53.7695 8.8 53.0033 9 52.3169 9.4C51.6305 9.8 51.0878 10.368 50.6887 11.104C50.2896 11.824 50.0901 12.656 50.0901 13.6C50.0901 14.544 50.2896 15.384 50.6887 16.12C51.0878 16.84 51.6305 17.4 52.3169 17.8C53.0033 18.2 53.7695 18.4 54.6156 18.4Z" fill="#222222"/>
<path d="M78.8401 13.24H83.0304V20.2C82.0726 20.888 80.9711 21.416 79.726 21.784C78.4809 22.152 77.2358 22.336 75.9907 22.336C74.2348 22.336 72.6545 21.968 71.2498 21.232C69.845 20.48 68.7436 19.44 67.9454 18.112C67.1473 16.784 66.7482 15.28 66.7482 13.6C66.7482 11.92 67.1473 10.416 67.9454 9.088C68.7436 7.76 69.853 6.728 71.2737 5.992C72.6944 5.24 74.2987 4.864 76.0865 4.864C77.6509 4.864 79.0556 5.128 80.3007 5.656C81.5458 6.184 82.5834 6.944 83.4135 7.936L80.3965 10.672C79.2631 9.424 77.9063 8.8 76.3259 8.8C74.8893 8.8 73.732 9.24 72.854 10.12C71.9761 10.984 71.5371 12.144 71.5371 13.6C71.5371 14.528 71.7366 15.36 72.1357 16.096C72.5348 16.816 73.0935 17.384 73.8118 17.8C74.5301 18.2 75.3522 18.4 76.2781 18.4C77.1879 18.4 78.042 18.216 78.8401 17.848V13.24Z" fill="#222222"/>
<path d="M95.6857 22.336C93.9138 22.336 92.3175 21.96 90.8968 21.208C89.4921 20.456 88.3826 19.416 87.5685 18.088C86.7704 16.76 86.3713 15.264 86.3713 13.6C86.3713 11.936 86.7704 10.44 87.5685 9.112C88.3826 7.784 89.4921 6.744 90.8968 5.992C92.3175 5.24 93.9138 4.864 95.6857 4.864C97.4575 4.864 99.0458 5.24 100.451 5.992C101.871 6.744 102.981 7.784 103.779 9.112C104.593 10.44 105 11.936 105 13.6C105 15.264 104.593 16.76 103.779 18.088C102.981 19.416 101.871 20.456 100.451 21.208C99.0458 21.96 97.4575 22.336 95.6857 22.336ZM95.6857 18.4C96.5317 18.4 97.2979 18.2 97.9843 17.8C98.6707 17.4 99.2134 16.84 99.6125 16.12C100.012 15.384 100.211 14.544 100.211 13.6C100.211 12.656 100.012 11.824 99.6125 11.104C99.2134 10.368 98.6707 9.8 97.9843 9.4C97.2979 9 96.5317 8.8 95.6857 8.8C94.8396 8.8 94.0734 9 93.387 9.4C92.7006 9.8 92.1579 10.368 91.7588 11.104C91.3597 11.824 91.1602 12.656 91.1602 13.6C91.1602 14.544 91.3597 15.384 91.7588 16.12C92.1579 16.84 92.7006 17.4 93.387 17.8C94.0734 18.2 94.8396 18.4 95.6857 18.4Z" fill="#222222"/>
<path d="M9.79026 25.1364L2.54013 18.7023L3.56009 11.8788C3.56009 11.1907 3.99176 10.6001 4.61032 10.3345L8.01021 11.0303C8.01021 10.3422 8.44187 9.75164 9.06044 9.48606L12.3678 10.164L12.4603 10.1818V2.54546C12.4603 1.85733 12.892 1.26679 13.5106 1.00121L16.7253 12.5915L16.9104 12.7273C17.731 12.7273 18.444 14.4242 18.444 14.4242L18.4457 14.437L9.79026 25.1364Z" fill="#EF9645"/>
<path d="M8.01021 13.3874C7.46819 13.8532 7.12019 14.521 7.12019 15.2727C7.12019 15.9116 7.37563 16.4886 7.78326 16.9349C7.47976 17.4584 6.90213 17.8182 6.23017 17.8182C5.24758 17.8182 4.45012 17.0579 4.45012 16.1212V11.0303C4.45012 10.7817 4.50975 10.5475 4.61032 10.3345C4.8889 9.74485 5.50836 9.33334 6.23017 9.33334C7.21275 9.33334 8.01021 10.0936 8.01021 11.0303V13.3874Z" fill="#FFDC5D"/>
<path d="M0 4.24242C0 3.3057 0.797461 2.54545 1.78005 2.54545C2.76263 2.54545 3.56009 3.3057 3.56009 4.24242V16.1212C3.56009 16.8331 3.89652 17.5288 4.44923 18.0057C5.48877 18.8202 6.97956 18.8907 8.00932 18.004C8.18911 17.8479 8.35109 17.6756 8.48103 17.4796L8.47836 17.4771C8.65726 17.5747 8.90024 17.8182 9.79026 17.8182H12.0482C10.4382 18.9764 9.34525 21.2036 9.34525 23.7576C9.34525 23.9918 9.54461 24.1818 9.79026 24.1818C10.0359 24.1818 10.2353 23.9918 10.2353 23.7576C10.2353 20.4833 12.1818 17.8182 14.5741 17.8182C15.2087 17.8852 15.328 16.9697 14.6854 16.9697H9.79026C8.80767 16.9697 8.01021 16.2095 8.01021 15.2727C8.01021 14.336 8.80767 13.5758 9.79026 13.5758H16.9104C17.772 13.5758 18.2286 14.0815 18.4457 14.437C18.5579 14.6211 18.6104 14.767 18.6131 14.7764L19.5805 17.8182C19.6722 18.1024 20.0068 19.4057 19.9463 19.6772C19.9463 23.7576 15.7668 28 10.6803 28C4.8622 28 0 23.5455 0 17.8182C0.00712019 17.8241 0 4.24242 0 4.24242Z" fill="#FFDC5D"/>
<path d="M12.4603 12.7273H9.79026C9.47697 12.7273 9.1806 12.7884 8.90024 12.8834V10.1818C8.90024 9.93321 8.95987 9.69903 9.06044 9.48606C9.33902 8.89636 9.95848 8.48485 10.6803 8.48485C11.6629 8.48485 12.4603 9.24509 12.4603 10.1818V12.7273ZM13.3504 12.7273V1.69697C13.3504 1.44836 13.41 1.21418 13.5106 1.00121C13.7891 0.411515 14.4086 0 15.1304 0C16.113 0 16.9105 0.760242 16.9105 1.69697V12.7273H13.3504Z" fill="#FFDC5D"/>
</svg>
