<svg width="20" height="15" viewBox="0 0 20 15" fill="none" xmlns="http://www.w3.org/2000/svg">
<path d="M20 12.6923C20 13.9667 19.005 15 17.7778 15H2.22222C0.995 15 0 13.9667 0 12.6923V2.30769C0 1.03327 0.995 0 2.22222 0H17.7778C19.005 0 20 1.03327 20 2.30769V12.6923Z" fill="#CCD6DD"/>
<path d="M6.63877 7.29001L0.353768 13.8167C0.338768 13.8329 0.333212 13.8531 0.320435 13.8692C0.509323 14.1981 0.772657 14.471 1.08932 14.6677C1.10543 14.6544 1.12432 14.6487 1.13932 14.6331L7.42488 8.10577C7.64155 7.8802 7.64155 7.51558 7.42488 7.29001C7.2071 7.06443 6.85599 7.06443 6.63877 7.29001ZM19.6793 13.8692C19.6677 13.8531 19.661 13.8329 19.646 13.8173L13.3615 7.29001C13.1438 7.06443 12.7927 7.06443 12.5754 7.29001C12.3582 7.51616 12.3582 7.88077 12.5754 8.10577L18.8604 14.6331C18.8749 14.6481 18.8949 14.6544 18.9104 14.6677C19.2277 14.4715 19.4904 14.1981 19.6793 13.8692Z" fill="#99AAB5"/>
<path d="M17.7778 0H2.22222C0.995 0 0 1.03327 0 2.30769V2.90192L8.07111 11.265C9.12333 12.3571 10.8422 12.3571 11.8956 11.265L20 2.88981V2.30769C20 1.03327 19.005 0 17.7778 0Z" fill="#99AAB5"/>
<path d="M17.7776 0H2.22208C1.33985 0 0.583742 0.538846 0.224854 1.3125L8.42819 9.83192C9.29597 10.7331 10.7037 10.7331 11.571 9.83192L19.7749 1.3125C19.416 0.538846 18.6604 0 17.7776 0Z" fill="#E1E8ED"/>
</svg>
