<svg width="282" height="279" xmlns="http://www.w3.org/2000/svg">

 <g>
  <title>background</title>
  <rect fill="none" id="canvas_background" height="281" width="284" y="-1" x="-1"/>
 </g>
 <g>
  <title>Layer 1</title>
  <path id="svg_1" fill="#FF7A00" d="m258.5,84.340709c12.979,0 23.5,-10.4094 23.5,-23.25c0,-12.8407 -10.521,-23.25 -23.5,-23.25c-12.979,0 -23.5,10.4093 -23.5,23.25c0,12.8406 10.521,23.25 23.5,23.25z"/>
  <path id="svg_2" fill="#FF7A00" d="m258.5,54.2495c12.979,0 23.5,-10.4093 23.5,-23.2499c0,-12.8406 -10.521,-23.24997 -23.5,-23.24997c-12.979,0 -23.5,10.40937 -23.5,23.24997c0,12.8406 10.521,23.2499 23.5,23.2499z"/>
  <path id="svg_3" fill="#FF7A00" d="m23.5,85.2498c12.9787,0 23.5,-10.4094 23.5,-23.25c0,-12.8407 -10.5213,-23.25 -23.5,-23.25c-12.9787,0 -23.5,10.4093 -23.5,23.25c0,12.8406 10.5213,23.25 23.5,23.25z"/>
  <path id="svg_4" fill="#FF7A00" d="m23.5,54.2495c12.9787,0 23.5,-10.4093 23.5,-23.2499c0,-12.8406 -10.5213,-23.24997 -23.5,-23.24997c-12.9787,0 -23.5,10.40937 -23.5,23.24997c0,12.8406 10.5213,23.2499 23.5,23.2499z"/>
  <path id="svg_5" fill="#FFF7E7" d="m282,139.5c0,77.043 -63.129,139.5 -141,139.5c-77.871,0 -141,-62.457 -141,-139.5c0,-77.0428 63.129,-139.5 141,-139.5c77.871,0 141,62.4572 141,139.5z"/>
  <path id="svg_6" fill="#FF7A00" d="m238.917,54.2501c10.815,0 19.583,-8.6745 19.583,-19.375c0,-10.7005 -8.768,-19.375 -19.583,-19.375c-10.816,0 -19.584,8.6745 -19.584,19.375c0,10.7005 8.768,19.375 19.584,19.375z"/>
  <path id="svg_7" fill="#FF7A00" d="m250.667,69.295355c8.652,0 15.666,-6.9396 15.666,-15.5001c0,-8.5604 -7.014,-15.5 -15.666,-15.5c-8.653,0 -15.667,6.9396 -15.667,15.5c0,8.5605 7.014,15.5001 15.667,15.5001z"/>
  <path id="svg_8" fill="#FF7A00" d="m43.083,54.2501c10.816,0 19.584,-8.6745 19.584,-19.375c0,-10.7005 -8.768,-19.375 -19.584,-19.375c-10.8152,0 -19.583,8.6745 -19.583,19.375c0,10.7005 8.7678,19.375 19.583,19.375z"/>
  <path id="svg_9" fill="#FF7A00" d="m31.3333,69.7499c8.6525,0 15.6667,-6.9396 15.6667,-15.5001c0,-8.5604 -7.0142,-15.5 -15.6667,-15.5c-8.6524,0 -15.6666,6.9396 -15.6666,15.5c0,8.5605 7.0142,15.5001 15.6666,15.5001z"/>
  <path id="svg_10" fill="#FF7892" d="m54.285,193.75c17.305,0 31.333,-13.879 31.333,-31c0,-17.12 -14.028,-31 -31.333,-31c-17.305,0 -31.3334,13.88 -31.3334,31c0,17.121 14.0284,31 31.3334,31z"/>
  <path id="svg_11" fill="#FF7892" d="m226.618,194.75c17.305,0 31.334,-13.879 31.334,-31c0,-17.12 -14.029,-31 -31.334,-31c-17.305,0 -31.333,13.88 -31.333,31c0,17.121 14.028,31 31.333,31z"/>
  <path id="svg_12" fill="#DA2F47" d="m214.124,183.124c-1.394,-1.247 -3.478,-1.325 -4.974,-0.224c-0.305,0.224 -30.722,22.475 -68.15,22.475c-37.333,0 -67.852,-22.251 -68.15,-22.475c-1.496,-1.101 -3.58,-1.008 -4.974,0.224c-1.386,1.24 -1.7,3.286 -0.736,4.867c1.01,1.667 25.2,52.259 73.86,52.259c48.661,0 72.858,-50.592 73.861,-52.259c0.963,-1.588 0.658,-3.627 -0.737,-4.867z"/>
  <path id="svg_13" fill="#C68F1D" d="m90.083,116.25c10.816,0 19.584,-12.144 19.584,-27.1246l-32.414,-20.493c-4.137,4.9734 -6.753,12.31 -6.753,20.493c0,14.9806 8.768,27.1246 19.583,27.1246z" clip-rule="evenodd" fill-rule="evenodd"/>
  <path id="svg_14" fill="#C68F1D" d="m200.29,116.25c-10.815,0 -19.583,-12.144 -19.583,-27.1246l32.414,-20.493c4.136,4.9734 6.753,12.31 6.753,20.493c0,14.9806 -8.768,27.1246 -19.584,27.1246z" clip-rule="evenodd" fill-rule="evenodd"/>
  <path id="svg_15" fill="#BB1A34" d="m144.917,178.25c15.141,0 27.416,-12.144 27.416,-27.125c0,-14.981 -12.275,-27.125 -27.416,-27.125c-15.142,0 -27.417,12.144 -27.417,27.125c0,14.981 12.275,27.125 27.417,27.125z"/>
 </g>
</svg>