<svg width="30" height="30" viewBox="0 0 30 30" fill="none" xmlns="http://www.w3.org/2000/svg">
<g clip-path="url(#clip0)">
<path d="M20.2736 6.67969C19.972 6.67969 19.6706 6.56408 19.4415 6.33305L15.829 2.69074C15.607 2.46697 15.3127 2.34375 15.0001 2.34375C14.6875 2.34375 14.3932 2.46697 14.1712 2.69074L10.5587 6.33305C10.1029 6.79254 9.36102 6.79564 8.90141 6.33984C8.44186 5.8841 8.43882 5.14207 8.89462 4.68258L12.5071 1.04027C13.1725 0.369434 14.0578 0 15.0001 0C15.9423 0 16.8277 0.369434 17.4931 1.04027L21.1055 4.68258C21.5613 5.14207 21.5583 5.8841 21.0987 6.33984C20.8703 6.56648 20.5718 6.67969 20.2736 6.67969ZM17.4931 28.9597L21.1055 25.3174C21.5613 24.8579 21.5583 24.1159 21.0987 23.6602C20.6391 23.2044 19.8972 23.2075 19.4415 23.667L15.829 27.3093C15.607 27.533 15.3127 27.6562 15.0001 27.6562C14.6875 27.6562 14.3932 27.533 14.1712 27.3093L10.5587 23.667C10.1029 23.2075 9.36102 23.2044 8.90141 23.6602C8.44186 24.1159 8.43882 24.8579 8.89462 25.3174L12.5071 28.9597C13.1725 29.6306 14.0578 30 15.0001 30C15.9423 30 16.8277 29.6306 17.4931 28.9597ZM19.043 14.9414C19.043 12.6798 17.2031 10.8398 14.9415 10.8398C12.6799 10.8398 10.8399 12.6798 10.8399 14.9414C10.8399 17.203 12.6799 19.043 14.9415 19.043C17.2031 19.043 19.043 17.203 19.043 14.9414ZM16.6993 14.9414C16.6993 15.9107 15.9107 16.6992 14.9415 16.6992C13.9722 16.6992 13.1837 15.9107 13.1837 14.9414C13.1837 13.9721 13.9722 13.1836 14.9415 13.1836C15.9107 13.1836 16.6993 13.9721 16.6993 14.9414Z" fill="#222222" stroke="white"/>
</g>
<defs>
<clipPath id="clip0">
<rect width="30" height="30" fill="white"/>
</clipPath>
</defs>
</svg>
